<?xml version="1.0" encoding="UTF-8"?>
<svg id="Layer_1" data-name="Layer 1" xmlns="http://www.w3.org/2000/svg" xmlns:xlink="http://www.w3.org/1999/xlink" version="1.1" viewBox="190 220 460 150">
  <defs>
    <style>
      .cls-1 {
        fill: url(#linear-gradient);
        stroke-width: 0px;
      }
    </style>
    <linearGradient id="linear-gradient" x1="196.85" y1="297.64" x2="645.04" y2="297.64" gradientUnits="userSpaceOnUse">
      <stop offset="0" stop-color="#558ac7"/>
      <stop offset=".5" stop-color="#e73a8a"/>
      <stop offset="1" stop-color="#f47f2c"/>
    </linearGradient>
  </defs>
  <path class="cls-1" d="M201.05,304.35c1.05,2.9,3.57,5.61,7.57,8.14,4,2.53,8.72,4.46,14.18,5.81,4.1.95,8.02,1.42,11.77,1.42,4.55,0,8.65-.6,12.3-1.8,3.65-1.2,6.5-2.9,8.55-5.1h-.08c1.9-2.1,2.85-4.45,2.85-7.05,0-3.35-1.75-6.09-5.25-8.21-3.5-2.12-9.15-3.84-16.95-5.14l-8.1-1.42c-10.2-1.9-17.92-5.39-23.17-10.46-5.25-5.07-7.88-11.61-7.88-19.61,0-6.55,1.82-12.4,5.48-17.55,3.65-5.15,8.82-9.15,15.52-12,6.35-2.7,13.58-4.05,21.67-4.05h.08l2.48.08c10.65.3,20.48,2.8,29.48,7.5l-.83,21.23c-10-7-20.3-10.5-30.9-10.5-4.4,0-8.36.61-11.89,1.84-3.52,1.23-6.31,2.94-8.36,5.14h.07c-1.9,2.1-2.85,4.5-2.85,7.2,0,3.4,1.57,6.13,4.72,8.17,3.15,2.05,8.37,3.73,15.68,5.03l7.2,1.2c11.2,1.9,19.62,5.38,25.28,10.43,5.65,5.05,8.47,11.6,8.47,19.65,0,6.55-1.88,12.41-5.62,17.59s-9.05,9.21-15.9,12.11c-6.6,2.75-13.95,4.12-22.05,4.12h-.08l-2.25-.07c-5.9-.2-11.85-1.15-17.85-2.85s-11.4-3.98-16.2-6.83l2.85-24ZM344.48,286.58c-3.05-3.25-6.03-5.6-8.92-7.05-2.9-1.45-6.1-2.18-9.6-2.18-3.75,0-7.14.91-10.16,2.74-3.03,1.83-5.46,4.44-7.31,7.84v-.08c-1.75,3.5-2.62,7.3-2.62,11.4s.86,7.81,2.59,11.14c1.73,3.33,4.14,5.99,7.24,7.99,3.1,1.85,6.52,2.77,10.27,2.77,3.45,0,6.81-.81,10.09-2.44,3.27-1.62,6.09-3.89,8.44-6.79v21.98c-5.4,2.85-11.43,4.27-18.08,4.27-7.45,0-14.14-1.64-20.06-4.91-5.92-3.27-10.56-7.91-13.91-13.91-3.3-5.85-4.95-12.55-4.95-20.1s1.65-14.15,4.95-20.1c3.3-5.95,7.92-10.6,13.88-13.95,5.95-3.25,12.65-4.88,20.1-4.88,6.65,0,12.68,1.43,18.08,4.27v21.98ZM410.6,336.53v-7.65c-5.35,5.45-12.28,8.17-20.77,8.17-6.65,0-12.73-1.64-18.23-4.91-5.5-3.27-9.85-7.84-13.05-13.69-3.15-5.7-4.73-12.1-4.73-19.2s1.55-13.4,4.65-19.2c3.1-5.8,7.43-10.35,12.98-13.65,5.5-3.3,11.62-4.95,18.38-4.95,4.2,0,8.06.7,11.59,2.1,3.52,1.4,6.59,3.48,9.19,6.23v-1.2l17.55-7.65v75.6h-17.55ZM380.71,280.73c-3.03,1.8-5.39,4.3-7.09,7.5-1.7,3.2-2.55,6.88-2.55,11.03s.84,7.75,2.51,10.95c1.67,3.2,4.04,5.7,7.09,7.5v.08c2.9,1.8,6.32,2.7,10.27,2.7s7.21-.9,10.24-2.7c3.02-1.8,5.39-4.32,7.09-7.58,1.7-3.2,2.55-6.85,2.55-10.95s-.84-7.7-2.51-10.95c-1.68-3.25-4.04-5.77-7.09-7.58-3.05-1.8-6.48-2.7-10.27-2.7s-7.21.9-10.24,2.7ZM437.48,234.9l18-7.58v108.98h-18v-101.4ZM464.82,246.53l18-7.58v15.98l-18,7.58v-15.98ZM464.82,268.05l18-7.58v75.83h-18v-68.25ZM546.57,264.83c4.62,2.5,8.24,6.03,10.84,10.58,2.55,4.5,3.83,9.63,3.83,15.38v46.27h-18v-41.1c0-5.65-1.35-10.01-4.05-13.09-2.7-3.08-6.55-4.61-11.55-4.61-3.45,0-6.49.73-9.11,2.17-2.62,1.45-4.66,3.52-6.11,6.23-1.5,2.75-2.25,5.9-2.25,9.45v40.95h-18v-69l17.85-7.58v9.15c2.5-2.8,5.52-4.92,9.08-6.38,3.55-1.45,7.5-2.18,11.85-2.18,5.8,0,11.01,1.25,15.64,3.75ZM617.37,263.74c3.8,1.42,7.08,3.54,9.83,6.34v-2.25l17.85-7.57v70.5c0,7.65-1.57,14.27-4.72,19.88-3.15,5.6-7.72,9.87-13.72,12.82-5.85,3-12.8,4.5-20.85,4.5-5.85,0-11.6-.8-17.25-2.4-5.65-1.6-10.27-3.78-13.88-6.52l6.45-15.3c8,5.2,16.22,7.8,24.67,7.8,6.85,0,12.14-1.75,15.86-5.25,3.72-3.5,5.59-8.45,5.59-14.85v-2.7c-5.5,5.65-13.03,8.48-22.58,8.48-5.95,0-11.51-1.57-16.69-4.73-5.17-3.15-9.34-7.52-12.49-13.12-3.25-5.8-4.88-12.45-4.88-19.95s1.55-13.73,4.65-19.58c3.1-5.85,7.4-10.37,12.9-13.57,5.15-3.1,10.65-4.65,16.5-4.65,4.7,0,8.95.71,12.75,2.14ZM597.68,281.1c-3.03,1.75-5.39,4.23-7.09,7.43-1.7,3.05-2.55,6.67-2.55,10.88s.85,7.6,2.55,10.8c1.7,3.2,4.07,5.68,7.12,7.43,3,1.8,6.4,2.7,10.2,2.7s7.2-.87,10.2-2.62c3-1.75,5.37-4.25,7.12-7.5,1.7-3.05,2.55-6.65,2.55-10.8s-.85-7.59-2.55-10.76c-1.7-3.17-4.08-5.66-7.12-7.46-3-1.8-6.4-2.7-10.2-2.7s-7.21.88-10.24,2.62Z"/>
</svg>
